<?xml version="1.0" encoding="utf-8" ?><svg xmlns="http://www.w3.org/2000/svg" xmlns:xlink="http://www.w3.org/1999/xlink" width="1820" height="1024" viewBox="0 0 1820 1024"><path fill="#9D82B9" d="M0 0L36.2597 0L35.7501 352.952L12.618 353.02C36.9238 385.452 60.3749 418.512 84.9625 450.73C107.556 450.916 130.151 450.875 152.744 450.609C164.041 450.553 175.724 449.982 186.975 450.815C172.837 451.825 158.471 451.448 144.295 451.498C124.793 451.566 105.265 451.814 85.7659 451.635C89.3583 457.151 93.4011 465.213 98.3668 469.428L201.009 606.311L263.774 606.166C274.414 606.159 285.427 605.586 296.009 606.362C267.179 609.079 231.47 606.717 201.713 607.157C205.584 612.491 236.266 656.996 238.928 657.42C240.9 657.734 242.794 657.798 244.787 657.803L241.373 658.578L240.831 659.63C250.71 674.116 261.754 688.055 272.2 702.161C284.72 718.624 296.271 735.866 308.87 752.205C312.513 752.318 316.374 752.189 319.967 752.748C317.374 752.84 313.124 752.453 310.994 753.9C318.865 768.301 331.241 782.057 340.838 795.495C367.014 795.469 393.595 794.489 419.722 795.705C393.985 797.483 367.382 796.269 341.549 796.225C351.66 813.062 364.43 829.774 376.614 845.19L453.891 845.174C465.816 845.175 479.276 843.988 491.04 845.601C478.703 847.126 465.316 846.093 452.862 846.059L376.826 845.946C386.481 859.059 397.628 877.325 408.375 888.791C419.83 905.059 431.03 922.162 443.388 937.73L490.454 937.675C490.46 923.19 488.868 902.527 491.057 888.773C493.128 904.632 491.442 922.474 491.275 938.49L444.332 938.602C453.641 953.679 465.007 967.868 475.511 982.13C480.665 982.199 486.353 981.787 491.403 982.817C486.236 983.118 481.205 983.081 476.04 982.876C480.989 989.943 486.121 996.881 491.43 1003.68C494.882 1010.98 500.867 1016.93 504.814 1024L0 1024L0 0Z"/><path fill="#030203" d="M36.2597 0L185.224 0L185.141 352.825L273.385 352.897L273.136 0L425.522 0L425.622 353.015L525.247 353.186C525.209 385.676 524.844 418.199 525.199 450.685L508.282 450.663L508.286 469.2L525.214 469.076L525.71 962.173L630.121 827.424C627.157 786.217 627.476 744.684 624.191 703.553L728.324 703.381C729.673 695.661 728.67 686.671 728.492 678.815L767.673 678.891L767.438 681.416L738.706 778.848C733.494 796.526 728.775 814.531 722.861 831.98C720.356 840.543 718.629 851.509 714.075 859.155C707.918 869.492 694.262 881.807 685.824 891.259L613.206 971.049C600.28 985.171 585.94 999.247 574.439 1014.51C568.222 1010.21 562.599 1004.59 556.902 999.623C546.859 990.679 536.509 982.085 525.871 973.857C525.864 984.435 525.641 995.011 525.199 1005.58C525.288 1011.72 525.328 1017.86 525.319 1024L504.814 1024C500.867 1016.93 494.882 1010.98 491.43 1003.68L491.403 982.817C486.353 981.787 480.665 982.199 475.511 982.13C465.007 967.868 453.641 953.679 444.332 938.602L491.275 938.49C491.442 922.474 493.128 904.632 491.057 888.773L408.375 888.791C397.628 877.325 386.481 859.059 376.826 845.946L452.862 846.059C465.316 846.093 478.703 847.126 491.04 845.601C491.178 828.95 491.193 812.298 491.088 795.647L419.722 795.705C393.595 794.489 367.014 795.469 340.838 795.495C331.241 782.057 318.865 768.301 310.994 753.9C313.124 752.453 317.374 752.84 319.967 752.748L490.822 752.934C491.361 736.044 491.149 719.116 491.133 702.218L272.2 702.161C261.754 688.055 250.71 674.116 240.831 659.63L241.373 658.578L244.787 657.803C253.554 658.404 262.68 657.918 271.478 657.929L325.845 657.932L491.352 657.81L491.319 606.278L296.009 606.362C285.427 605.586 274.414 606.159 263.774 606.166L201.009 606.311L98.3668 469.428L204.241 469.305L204.257 450.746L186.975 450.815C175.724 449.982 164.041 450.553 152.744 450.609C130.151 450.875 107.556 450.916 84.9625 450.73C60.3749 418.512 36.9238 385.452 12.618 353.02L35.7501 352.952L36.2597 0ZM74.1613 57.975C67.5258 59.4645 62.4308 61.9727 58.7532 67.9175C51.4945 79.6511 55.0277 107.496 54.9634 121.496L78.6475 121.544L96.8458 121.563C96.8691 107.045 100.674 74.7004 90.4323 64.2396C85.9104 59.621 80.3935 58.3989 74.1613 57.975ZM138.84 58.7967C131.822 62.3767 127.398 65.4987 124.835 73.2381C120.866 85.2221 123.589 108.078 123.403 121.411L152.185 121.29L166.138 121.269C166.17 106.736 169.853 74.8307 159.672 64.3055C155.532 60.0247 150.029 58.3955 144.203 58.4108C142.41 58.4155 140.62 58.5981 138.84 58.7967ZM311.36 58.7672C305.045 61.0364 300.577 63.7092 297.663 69.9951C292.391 81.3675 295.255 107.75 295.161 121.045L320.366 121.037L336.168 121.042C336.29 106.755 340.173 74.5231 329.687 64.0218C325.775 60.1039 320.712 58.4466 315.262 58.5302C313.958 58.5427 312.656 58.6218 311.36 58.7672ZM380.841 58.712C374.425 60.9397 369.686 63.6008 366.606 69.896C361.052 81.2479 364.317 107.622 364.085 120.985L390.571 120.899L406.169 120.897C406.235 106.495 410.019 74.8371 399.817 64.473C395.64 60.2293 390.051 58.5288 384.207 58.5699C383.084 58.5797 381.961 58.6271 380.841 58.712ZM106.98 196.786C89.0244 198.631 73.1883 204.5 61.4947 218.969C55.6188 226.275 51.5583 234.87 49.6464 244.049C46.6579 258.107 48.071 274.133 48.1041 288.459L48.1337 353.139L114.194 353.068L170.915 353.014L171.282 288.62C171.293 273.139 172.854 255.435 168.887 240.409C166.212 230.468 160.993 221.396 153.744 214.088C141.945 202.205 126.213 196.558 109.622 196.662C108.734 196.667 107.864 196.683 106.98 196.786ZM347.051 196.809C329.579 198.215 313.551 205.074 302.077 218.72C295.744 226.286 291.356 235.285 289.292 244.934C286.147 259.631 287.75 276.736 287.755 291.72C287.761 312.241 287.392 332.853 287.816 353.368L351.949 353.081L410.7 353.104L410.673 291.333C410.701 275.84 412.373 258.296 408.802 243.214C406.159 231.837 400.38 221.429 392.12 213.173C380.996 202.144 364.893 196.432 349.287 196.697C348.541 196.707 347.795 196.745 347.051 196.809ZM290.502 450.569L290.437 469.03L424.124 469.088L424.155 450.637L290.502 450.569Z"/><path fill="#9D82B9" d="M185.224 0L273.136 0L273.385 352.897L185.141 352.825L185.224 0Z"/><path fill="#9D82B9" d="M425.522 0L525.049 0L525.247 353.186L425.622 353.015L425.522 0Z"/><path fill="#FEFEFE" d="M525.049 0L617.609 0C627.794 18.7008 640.923 36.4798 652.448 54.4217L725.734 167.931L909.889 453.338L1203.02 0L1294.76 0L1294.78 353.185L1294.84 450.716L1310.83 450.715L1310.81 469.105L1294.82 469.166L1294.26 810.059C1294.12 860.938 1296.02 912.288 1294.16 963.104C1257.5 919.245 1225.68 871.206 1189.55 826.87C1191.48 785.671 1193.72 744.487 1196.26 703.321L1091.23 703.16C1091.21 695.252 1091.4 687.275 1091.1 679.377C1090.03 667.485 1090.46 655.343 1090.45 643.405L1090.45 585.105C1090.5 518.753 1091.22 452.35 1090.56 386.002L1051.93 386.204C1051.98 405.455 1051.83 424.706 1051.48 443.953C1040.86 445.992 1031.55 451.014 1025.41 460.182C1020.58 467.393 1018.93 476.272 1020.83 484.738C1022.72 493.345 1028.07 500.563 1035.46 505.261C1040.37 508.376 1045.71 509.91 1051.33 511.19L1051.39 684.485C1037.2 734.404 1019.09 783.634 1002.05 832.649C981.752 892.959 960.985 953.111 939.75 1013.1L935.417 1024L883.931 1024L879.912 1013.12C850.986 932.283 822.838 851.168 795.472 769.788L778.955 720.33C774.719 707.762 769.228 694.565 767.438 681.416L767.673 678.891L768.237 511.33C779.451 508.306 789.255 502.847 795.213 492.446C799.39 485.228 800.437 476.617 798.111 468.608C793.449 452.731 778.485 446.943 767.137 436.771C766.791 419.848 766.671 402.922 766.777 385.996L728.628 386.119C728.212 458.327 728.176 530.536 728.52 602.744C728.542 623.722 728.429 644.699 728.183 665.676C728.043 678.131 727.119 690.974 728.324 703.381L624.191 703.553C627.476 744.684 627.157 786.217 630.121 827.424L525.71 962.173L525.214 469.076L508.286 469.2L508.282 450.663L525.199 450.685C524.844 418.199 525.209 385.676 525.247 353.186L525.049 0ZM1067.62 327.707C1056.3 331.671 1044.06 334.672 1032.32 337.102C1033.89 341.256 1035.03 344.823 1039.31 346.911C1042.94 348.679 1046.83 348.26 1050.48 346.827C1059.24 343.378 1065.63 335.793 1070.55 328.051C1070.7 327.858 1070.86 327.681 1070.98 327.472C1072.09 325.527 1071.89 324.261 1071.58 322.181C1070.04 319.59 1068.05 318.3 1065.35 317.136C1057.48 313.731 1041.65 310.505 1033.65 313.984C1031.23 315.031 1028.84 316.802 1028.06 319.452C1027.33 321.916 1027.7 323.043 1028.7 325.223C1038.36 333.129 1055.45 325.557 1066.92 327.574C1067.15 327.615 1067.39 327.663 1067.62 327.707ZM710.071 226.085C691.764 228.532 676.755 236.558 665.474 251.269C655.383 264.461 650.972 281.134 653.218 297.592C656.594 322.995 673.843 336.562 692.105 352.11C698.614 344.664 704.954 337.072 711.122 329.34C713.901 325.792 716.835 322.291 719.323 318.533C713.414 318.087 708.119 317.711 704.026 312.94C701.516 310.014 700.241 306.503 700.547 302.627C700.836 298.98 702.568 295.426 705.368 293.052C708.15 290.692 711.883 289.7 715.486 290.081C720.115 290.571 722.543 293.235 725.968 296.034C730.211 281.24 732.91 266.778 747.609 258.716C753.408 255.535 760.15 253.757 766.414 251.682C752.891 236.928 738.558 226.551 717.712 225.813C715.168 225.723 712.608 225.889 710.071 226.085ZM1096.04 226.107C1079.28 227.914 1064.3 234.189 1053.41 247.568C1052.68 248.461 1051.98 249.374 1051.31 250.306C1064.33 254.771 1078.87 258.582 1085.4 272.033C1089.39 280.232 1089.79 290.133 1090.77 299.054C1095.11 294.039 1099 289.608 1106.11 289.188C1109.88 288.965 1113.63 290.152 1116.48 292.674C1119.53 295.375 1121.38 299.194 1121.58 303.27C1121.81 307.473 1120.27 311.387 1117.4 314.429C1113.47 318.584 1108.13 319.829 1102.65 320.441L1114.17 336.457L1125.18 352.065C1143.18 343.145 1157.19 329.638 1163.67 310.176C1169.19 294.016 1167.99 276.311 1160.33 261.048C1152.76 246.193 1139.48 234.074 1123.51 228.991C1114.62 226.158 1105.31 225.449 1096.04 226.107ZM1052.37 271.748C1049.96 273.544 1047.54 275.096 1046.12 277.82L1046.87 278.624C1050.79 278.438 1054.86 277.16 1058.7 277.565C1061.63 278.099 1063.54 278.836 1066.39 277.889C1066.18 276.465 1066.26 276.465 1065.09 275.589C1061.16 272.664 1057.3 271.464 1052.37 271.748ZM765.4 273.093C760.818 274.355 756.964 275.908 753.537 279.324L753.961 280.326C755.549 280.039 757.147 279.8 758.689 279.316C763.719 278.501 768.476 278.044 772.992 275.553L772.902 274.254C770.171 273.283 768.269 273.04 765.4 273.093ZM1050.94 286.333C1048.56 287.677 1047.28 288.131 1045.9 290.568C1045.8 293.028 1045.7 294.944 1046.73 297.26C1048.44 298.321 1048.66 298.443 1050.63 298.009C1053.71 297.331 1055.89 295.245 1057.88 292.947L1060.32 292.465C1062.91 293.669 1064.95 295.112 1067.83 294.927L1068.41 293.217C1066.75 290.221 1063.45 287.836 1060.18 286.844C1057.34 285.979 1053.89 286.178 1050.94 286.333ZM760.84 287.135C757.894 288.578 754.831 289.772 752.794 292.453C752.097 294.847 752.09 295.178 752.834 297.556L754.763 298.876C759.043 297.416 761.04 294.212 765.927 293.393C768.019 295.113 769.816 297.026 772.631 297.217L774.41 296.281C774.876 293.943 774.783 293.012 773.397 290.871C772.07 288.82 769.314 287.263 766.927 286.935C764.922 286.66 762.828 286.793 760.84 287.135ZM773.864 314.091C764.379 315.581 754.832 316.856 745.818 320.315C753.337 323.281 761.01 326.478 769.021 327.847C775.707 328.347 784.824 330.129 790.24 325.052C791.241 324.113 791.727 322.9 792.173 321.634C791.819 318.909 791.505 317.369 789.046 315.674C784.829 312.767 778.709 313.386 773.864 314.091ZM749.057 325.138C751.741 333.854 756.221 341.499 764.522 345.957C768.573 348.133 773.787 349.235 778.27 347.867C779.856 347.383 781.232 346.738 782.622 345.847C784.231 343.226 785.676 341.179 785.636 337.995C783.13 334.703 755.343 327.973 749.057 325.138ZM662.401 410.85C655.49 412.372 648.42 413.879 642.573 418.112C631.309 426.267 569.909 496.617 561.652 509.465C548.962 529.211 544.739 552.136 549.769 575.121C555.463 601.11 571.372 623.714 593.912 637.84C607.342 646.395 623.496 652.402 639.538 652.696C638.644 655.876 636.61 660.732 637.962 663.823C639.748 665.554 641.442 665.992 643.752 666.681C649.38 648.027 654.875 629.332 660.238 610.6C662.535 602.796 665.702 594.935 667.453 587.011C667.897 585.001 668.117 583.337 667.46 581.321L666.101 580.709C663.754 581.811 661.487 583.084 660.511 585.639C659.636 587.931 659.076 590.486 658.523 592.874C646.487 588.344 632.817 581.228 627.129 569.028C623.919 562.143 623.965 554.043 626.727 547.022C630.701 536.921 639.7 528.562 646.909 520.672C659.626 506.754 695.125 470.292 700.811 455.801C703.741 448.289 703.665 439.937 700.598 432.479C696.968 423.765 689.972 416.886 681.199 413.405C675.153 411.014 668.845 410.371 662.401 410.85ZM1146.24 410.83C1135.6 413.333 1127.22 417.905 1121.4 427.518C1116.68 435.189 1115.29 444.45 1117.54 453.171C1118.6 457.378 1120.28 460.752 1122.84 464.239C1132.23 477.058 1144.65 488.795 1155.38 500.599C1168.77 515.327 1181.85 531.397 1196.23 545.117C1196.09 558.646 1193.91 570.538 1183.86 580.473C1177.43 586.822 1170.32 589.887 1161.74 592.158C1160.63 586.892 1160.02 580.999 1154.7 578.18C1154.56 578.107 1154.4 578.075 1154.25 578.022L1152.76 579.176L1154.02 577.98L1154.56 578.166L1152.65 580.149C1154.18 594.574 1159.49 610.012 1162.98 624.127C1165.16 632.921 1167.74 641.74 1169.76 650.541C1170.66 654.43 1170.94 658.491 1172.09 662.319C1172.65 664.211 1173.31 666.058 1174.89 667.35C1175.44 667.799 1176.58 667.442 1177.28 667.362L1179.03 665.778C1179 664.348 1179 662.91 1178.81 661.491C1178.15 658.282 1177.35 655.026 1176.99 651.772C1207.09 648.07 1230.98 638.021 1250.03 613.607C1265.68 593.553 1273.62 567.976 1270.34 542.592C1268.77 530.375 1264.99 519.578 1258.64 509.049C1251.42 497.071 1189.19 427.146 1178.94 419.342C1169.18 411.909 1158.19 409.779 1146.24 410.83Z"/><path fill="#030203" d="M617.609 0L1203.02 0L909.889 453.338L725.734 167.931L652.448 54.4217C640.923 36.4798 627.794 18.7008 617.609 0Z"/><path fill="#9D82B9" d="M1294.76 0L1393.98 0L1394.01 353.571C1360.99 353.6 1327.78 354.291 1294.78 353.185L1294.76 0Z"/><path fill="#030203" d="M1393.98 0L1546.36 0L1546.41 215.044C1546.37 261.172 1545.64 307.477 1546.76 353.586C1576.25 353.823 1605.73 353.881 1635.22 353.762L1635.18 0L1784.94 0L1785.36 353.835L1806.61 353.879C1799.6 363.633 1736.29 449.362 1732.77 450.776L1616.02 451.418L1615.9 469.072C1628.44 470.013 1641.24 469.482 1653.81 469.462L1719.6 469.325C1711.99 479.936 1703.76 490.071 1696.02 500.582L1617.77 606.232L1548.98 606.259C1535.36 606.27 1521.3 605.584 1507.76 606.98L1327.86 606.782L1327.73 657.676L1579.92 657.73C1572.44 668.043 1564.84 678.27 1557.13 688.409C1553.78 692.866 1550.35 698.473 1546.42 702.347L1327.73 702.1L1327.76 751.515C1347.36 753.84 1368.69 751.962 1388.5 751.939L1509.03 751.881C1497.99 766.474 1486.56 781.129 1476.48 796.405L1327.69 796.493L1327.68 845.482L1433.39 845.435C1435.6 845.807 1438.39 845.784 1440.09 847.237C1431.27 861.22 1421.06 876.102 1410.48 888.794L1354.68 888.84C1346.12 888.854 1336.08 887.832 1327.74 889.416L1327.74 938.58L1374.83 938.564C1363.87 953.44 1353.08 968.473 1341.81 983.115L1328.39 983.095C1327.97 989.307 1327.98 995.492 1328 1001.71L1311.83 1024L1293.99 1024L1293.98 1004.29L1293.9 972.511L1245.19 1011.37C1240.03 1004.87 1233.64 998.916 1227.88 992.931C1217.42 982.13 1207.03 971.259 1196.71 960.322L1102.29 858.672C1100.67 850.216 1098 842.069 1095.43 833.868C1089.38 809.711 1081.67 785.739 1074.77 761.791C1067.31 735.938 1060.53 709.768 1052.02 684.239C1052.12 682.319 1051.82 680.837 1053.15 679.364C1065.6 678.365 1078.6 679.202 1091.1 679.377C1091.4 687.275 1091.21 695.252 1091.23 703.16L1196.26 703.321C1193.72 744.487 1191.48 785.671 1189.55 826.87C1225.68 871.206 1257.5 919.245 1294.16 963.104C1296.02 912.288 1294.12 860.938 1294.26 810.059L1294.82 469.166L1310.81 469.105L1310.83 450.715L1294.84 450.716L1294.78 353.185C1327.78 354.291 1360.99 353.6 1394.01 353.571L1393.98 0ZM1431.18 58.7009C1424.91 60.9315 1420.38 63.3468 1417.36 69.5288C1411.67 81.1957 1414.71 108.016 1414.57 121.778L1440.09 121.763L1455.55 121.773C1455.62 107.56 1459.22 74.6467 1449.33 64.4379C1445.24 60.2144 1440.15 58.6577 1434.39 58.6349C1433.32 58.6268 1432.25 58.6488 1431.18 58.7009ZM1501.5 58.7866C1495.21 60.5459 1490.54 62.7432 1487.22 68.6232C1481.16 79.3097 1483.74 108.541 1483.67 121.843L1508.52 121.834L1524.43 121.815C1524.62 107.424 1528.64 74.7121 1518.33 64.4558C1513.76 59.9146 1507.71 58.803 1501.5 58.7866ZM1669.12 58.8396C1662.49 61.7311 1658.11 64.7419 1655.46 71.7142C1650.96 83.5504 1653.91 108.378 1653.79 121.727L1680.92 121.716L1695.49 121.748C1695.48 106.91 1699.32 74.9822 1688.85 64.236C1685.07 60.3587 1679.65 58.3359 1674.27 58.4392C1672.55 58.4722 1670.83 58.6532 1669.12 58.8396ZM1739.24 58.8218C1732.69 61.6738 1728.47 64.1115 1725.77 71.0069C1721.16 82.7841 1724.15 108.161 1723.94 121.567L1751.13 121.648L1765.25 121.642C1765.4 106.893 1769.36 74.9222 1758.87 64.1478C1755.16 60.3321 1750.07 58.4112 1744.79 58.4149C1742.93 58.4162 1741.08 58.6045 1739.24 58.8218ZM1466.24 196.79C1448.44 198.667 1433.45 205.475 1422.01 219.684C1416.07 226.995 1411.9 235.58 1409.82 244.77C1406.42 259.488 1407.7 275.762 1407.69 290.759L1407.6 353.253L1474.97 353.58L1532.58 353.644L1532.59 286.887C1532.59 272.756 1534.27 256.17 1530.9 242.483C1528.34 232.099 1522.52 222.7 1515.03 215.151C1502.89 202.93 1487.51 196.537 1470.31 196.601C1468.95 196.603 1467.59 196.666 1466.24 196.79ZM1705.9 196.769C1688.88 198.613 1674.44 205.687 1663.54 219.166C1657.39 226.764 1653.51 235.774 1651.61 245.33C1648.87 259.13 1650 274.347 1649.96 288.357L1649.93 353.343L1719.8 353.727L1771.75 353.84L1771.83 292.259C1771.87 275.617 1773.62 256.86 1769.22 240.631C1766.49 230.584 1761.19 221.422 1753.84 214.041C1742.1 202.191 1726.24 196.535 1709.72 196.639C1708.45 196.647 1707.17 196.642 1705.9 196.769ZM1396.87 450.694L1396.86 469.253L1531.08 469.258L1531.04 450.779L1396.87 450.694Z"/><path fill="#9D82B9" d="M1546.36 0L1635.18 0L1635.22 353.762C1605.73 353.881 1576.25 353.823 1546.76 353.586C1545.64 307.477 1546.37 261.172 1546.41 215.044L1546.36 0Z"/><path fill="#9D82B9" d="M1784.94 0L1820 0L1820 1024L1311.83 1024L1328 1001.71C1327.98 995.492 1327.97 989.307 1328.39 983.095C1329.08 988.775 1328.71 994.879 1328.73 1000.62C1333.37 995.01 1337.54 989.006 1341.81 983.115C1353.08 968.473 1363.87 953.44 1374.83 938.564C1387.43 923.244 1398.92 905.875 1410.18 889.519C1382.88 889.037 1354.92 891.54 1327.74 889.416C1336.08 887.832 1346.12 888.854 1354.68 888.84L1410.48 888.794C1421.06 876.102 1431.27 861.22 1440.09 847.237C1438.39 845.784 1435.6 845.807 1433.39 845.435C1435.88 845.417 1438.37 845.462 1440.83 844.998C1445.01 844.206 1472.52 802.225 1476.48 796.405C1486.56 781.129 1497.99 766.474 1509.03 751.881L1388.5 751.939C1368.69 751.962 1347.36 753.84 1327.76 751.515C1343.4 749.427 1368.67 751.12 1385.15 751.121L1509.95 751.02C1522.85 736.145 1535.22 718.57 1546.42 702.347C1550.35 698.473 1553.78 692.866 1557.13 688.409C1564.84 678.27 1572.44 668.043 1579.92 657.73C1592.27 640.786 1604.72 623.912 1617.26 607.109C1580.87 607.164 1544.11 608.356 1507.76 606.98C1521.3 605.584 1535.36 606.27 1548.98 606.259L1617.77 606.232L1696.02 500.582C1703.76 490.071 1711.99 479.936 1719.6 469.325L1653.81 469.462C1641.24 469.482 1628.44 470.013 1615.9 469.072C1628.18 468.029 1640.96 468.632 1653.29 468.592L1720.49 468.435C1724.26 463.357 1730.71 456.616 1732.77 450.776C1736.29 449.362 1799.6 363.633 1806.61 353.879L1785.36 353.835L1784.94 0Z"/><path fill="#7FAA38" d="M54.9634 121.496C55.0277 107.496 51.4945 79.6511 58.7532 67.9175C62.4308 61.9727 67.5258 59.4645 74.1613 57.975C80.3935 58.3989 85.9104 59.621 90.4323 64.2396C100.674 74.7004 96.8691 107.045 96.8458 121.563L78.6475 121.544L54.9634 121.496Z"/><path fill="#7FAA38" d="M123.403 121.411C123.589 108.078 120.866 85.2221 124.835 73.2381C127.398 65.4987 131.822 62.3767 138.84 58.7967C140.62 58.5981 142.41 58.4155 144.203 58.4108C150.029 58.3955 155.532 60.0247 159.672 64.3055C169.853 74.8307 166.17 106.736 166.138 121.269L152.185 121.29L123.403 121.411Z"/><path fill="#7FAA38" d="M295.161 121.045C295.255 107.75 292.391 81.3675 297.663 69.9951C300.577 63.7092 305.045 61.0364 311.36 58.7672C312.656 58.6218 313.958 58.5427 315.262 58.5302C320.712 58.4466 325.775 60.1039 329.687 64.0218C340.173 74.5231 336.29 106.755 336.168 121.042L320.366 121.037L295.161 121.045Z"/><path fill="#7FAA38" d="M364.085 120.985C364.317 107.622 361.052 81.2479 366.606 69.896C369.686 63.6008 374.425 60.9397 380.841 58.712C381.961 58.6271 383.084 58.5797 384.207 58.5699C390.051 58.5288 395.64 60.2293 399.817 64.473C410.019 74.8371 406.235 106.495 406.169 120.897L390.571 120.899L364.085 120.985Z"/><path fill="#7FAA38" d="M1414.57 121.778C1414.71 108.016 1411.67 81.1957 1417.36 69.5288C1420.38 63.3468 1424.91 60.9315 1431.18 58.7009C1432.25 58.6488 1433.32 58.6268 1434.39 58.6349C1440.15 58.6577 1445.24 60.2144 1449.33 64.4379C1459.22 74.6467 1455.62 107.56 1455.55 121.773L1440.09 121.763L1414.57 121.778Z"/><path fill="#7FAA38" d="M1483.67 121.843C1483.74 108.541 1481.16 79.3097 1487.22 68.6232C1490.54 62.7432 1495.21 60.5459 1501.5 58.7866C1507.71 58.803 1513.76 59.9146 1518.33 64.4558C1528.64 74.7121 1524.62 107.424 1524.43 121.815L1508.52 121.834L1483.67 121.843Z"/><path fill="#7FAA38" d="M1653.79 121.727C1653.91 108.378 1650.96 83.5504 1655.46 71.7142C1658.11 64.7419 1662.49 61.7311 1669.12 58.8396C1670.83 58.6532 1672.55 58.4722 1674.27 58.4392C1679.65 58.3359 1685.07 60.3587 1688.85 64.236C1699.32 74.9822 1695.48 106.91 1695.49 121.748L1680.92 121.716L1653.79 121.727Z"/><path fill="#7FAA38" d="M1723.94 121.567C1724.15 108.161 1721.16 82.7841 1725.77 71.0069C1728.47 64.1115 1732.69 61.6738 1739.24 58.8218C1741.08 58.6045 1742.93 58.4162 1744.79 58.4149C1750.07 58.4112 1755.16 60.3321 1758.87 64.1478C1769.36 74.9222 1765.4 106.893 1765.25 121.642L1751.13 121.648L1723.94 121.567Z"/><path fill="#7FAA38" d="M48.1337 353.139L48.1041 288.459C48.071 274.133 46.6579 258.107 49.6464 244.049C51.5583 234.87 55.6188 226.275 61.4947 218.969C73.1883 204.5 89.0244 198.631 106.98 196.786C107.864 196.683 108.734 196.667 109.622 196.662C126.213 196.558 141.945 202.205 153.744 214.088C160.993 221.396 166.212 230.468 168.887 240.409C172.854 255.435 171.293 273.139 171.282 288.62L170.915 353.014L114.194 353.068L48.1337 353.139Z"/><path fill="#7FAA38" d="M287.816 353.368C287.392 332.853 287.761 312.241 287.755 291.72C287.75 276.736 286.147 259.631 289.292 244.934C291.356 235.285 295.744 226.286 302.077 218.72C313.551 205.074 329.579 198.215 347.051 196.809C347.795 196.745 348.541 196.707 349.287 196.697C364.893 196.432 380.996 202.144 392.12 213.173C400.38 221.429 406.159 231.837 408.802 243.214C412.373 258.296 410.701 275.84 410.673 291.333L410.7 353.104L351.949 353.081L287.816 353.368Z"/><path fill="#7FAA38" d="M1407.6 353.253L1407.69 290.759C1407.7 275.762 1406.42 259.488 1409.82 244.77C1411.9 235.58 1416.07 226.995 1422.01 219.684C1433.45 205.475 1448.44 198.667 1466.24 196.79C1467.59 196.666 1468.95 196.603 1470.31 196.601C1487.51 196.537 1502.89 202.93 1515.03 215.151C1522.52 222.7 1528.34 232.099 1530.9 242.483C1534.27 256.17 1532.59 272.756 1532.59 286.887L1532.58 353.644L1474.97 353.58L1407.6 353.253Z"/><path fill="#7FAA38" d="M1649.93 353.343L1649.96 288.357C1650 274.347 1648.87 259.13 1651.61 245.33C1653.51 235.774 1657.39 226.764 1663.54 219.166C1674.44 205.687 1688.88 198.613 1705.9 196.769C1707.17 196.642 1708.45 196.647 1709.72 196.639C1726.24 196.535 1742.1 202.191 1753.84 214.041C1761.19 221.422 1766.49 230.584 1769.22 240.631C1773.62 256.86 1771.87 275.617 1771.83 292.259L1771.75 353.84L1719.8 353.727L1649.93 353.343Z"/><path fill="#030203" d="M692.105 352.11C673.843 336.562 656.594 322.995 653.218 297.592C650.972 281.134 655.383 264.461 665.474 251.269C676.755 236.558 691.764 228.532 710.071 226.085C712.608 225.889 715.168 225.723 717.712 225.813C738.558 226.551 752.891 236.928 766.414 251.682C760.15 253.757 753.408 255.535 747.609 258.716C732.91 266.778 730.211 281.24 725.968 296.034C722.543 293.235 720.115 290.571 715.486 290.081C711.883 289.7 708.15 290.692 705.368 293.052C702.568 295.426 700.836 298.98 700.547 302.627C700.241 306.503 701.516 310.014 704.026 312.94C708.119 317.711 713.414 318.087 719.323 318.533C716.835 322.291 713.901 325.792 711.122 329.34C704.954 337.072 698.614 344.664 692.105 352.11Z"/><path fill="#030203" d="M1051.31 250.306C1051.98 249.374 1052.68 248.461 1053.41 247.568C1064.3 234.189 1079.28 227.914 1096.04 226.107C1105.31 225.449 1114.62 226.158 1123.51 228.991C1139.48 234.074 1152.76 246.193 1160.33 261.048C1167.99 276.311 1169.19 294.016 1163.67 310.176C1157.19 329.638 1143.18 343.145 1125.18 352.065L1114.17 336.457L1102.65 320.441C1108.13 319.829 1113.47 318.584 1117.4 314.429C1120.27 311.387 1121.81 307.473 1121.58 303.27C1121.38 299.194 1119.53 295.375 1116.48 292.674C1113.63 290.152 1109.88 288.965 1106.11 289.188C1099 289.608 1095.11 294.039 1090.77 299.054C1089.79 290.133 1089.39 280.232 1085.4 272.033C1078.87 258.582 1064.33 254.771 1051.31 250.306Z"/><path fill="#030203" d="M1058.7 277.565C1054.86 277.16 1050.79 278.438 1046.87 278.624L1046.12 277.82C1047.54 275.096 1049.96 273.544 1052.37 271.748C1057.3 271.464 1061.16 272.664 1065.09 275.589C1066.26 276.465 1066.18 276.465 1066.39 277.889C1063.54 278.836 1061.63 278.099 1058.7 277.565Z"/><path fill="#030203" d="M758.689 279.316C757.147 279.8 755.549 280.039 753.961 280.326L753.537 279.324C756.964 275.908 760.818 274.355 765.4 273.093C768.269 273.04 770.171 273.283 772.902 274.254L772.992 275.553C768.476 278.044 763.719 278.501 758.689 279.316Z"/><path fill="#030203" d="M1060.32 292.465L1057.88 292.947C1055.89 295.245 1053.71 297.331 1050.63 298.009C1048.66 298.443 1048.44 298.321 1046.73 297.26C1045.7 294.944 1045.8 293.028 1045.9 290.568C1047.28 288.131 1048.56 287.677 1050.94 286.333C1053.89 286.178 1057.34 285.979 1060.18 286.844C1063.45 287.836 1066.75 290.221 1068.41 293.217L1067.83 294.927C1064.95 295.112 1062.91 293.669 1060.32 292.465Z"/><path fill="#030203" d="M765.927 293.393C761.04 294.212 759.043 297.416 754.763 298.876L752.834 297.556C752.09 295.178 752.097 294.847 752.794 292.453C754.831 289.772 757.894 288.578 760.84 287.135C762.828 286.793 764.922 286.66 766.927 286.935C769.314 287.263 772.07 288.82 773.397 290.871C774.783 293.012 774.876 293.943 774.41 296.281L772.631 297.217C769.816 297.026 768.019 295.113 765.927 293.393Z"/><path fill="#7FAA38" d="M1067.62 327.707C1067.39 327.663 1067.15 327.615 1066.92 327.574C1055.45 325.557 1038.36 333.129 1028.7 325.223C1027.7 323.043 1027.33 321.916 1028.06 319.452C1028.84 316.802 1031.23 315.031 1033.65 313.984C1041.65 310.505 1057.48 313.731 1065.35 317.136C1068.05 318.3 1070.04 319.59 1071.58 322.181C1071.89 324.261 1072.09 325.527 1070.98 327.472C1070.86 327.681 1070.7 327.858 1070.55 328.051L1067.62 327.707Z"/><path fill="#7FAA38" d="M745.818 320.315C754.832 316.856 764.379 315.581 773.864 314.091C778.709 313.386 784.829 312.767 789.046 315.674C791.505 317.369 791.819 318.909 792.173 321.634C791.727 322.9 791.241 324.113 790.24 325.052C784.824 330.129 775.707 328.347 769.021 327.847C761.01 326.478 753.337 323.281 745.818 320.315Z"/><path fill="#030203" d="M782.622 345.847C781.232 346.738 779.856 347.383 778.27 347.867C773.787 349.235 768.573 348.133 764.522 345.957C756.221 341.499 751.741 333.854 749.057 325.138C755.343 327.973 783.13 334.703 785.636 337.995C785.676 341.179 784.231 343.226 782.622 345.847Z"/><path fill="#030203" d="M1032.32 337.102C1044.06 334.672 1056.3 331.671 1067.62 327.707L1070.55 328.051C1065.63 335.793 1059.24 343.378 1050.48 346.827C1046.83 348.26 1042.94 348.679 1039.31 346.911C1035.03 344.823 1033.89 341.256 1032.32 337.102Z"/><path fill="#9D82B9" d="M767.673 678.891L728.492 678.815C728.67 686.671 729.673 695.661 728.324 703.381C727.119 690.974 728.043 678.131 728.183 665.676C728.429 644.699 728.542 623.722 728.52 602.744C728.176 530.536 728.212 458.327 728.628 386.119L766.777 385.996C766.671 402.922 766.791 419.848 767.137 436.771C778.485 446.943 793.449 452.731 798.111 468.608C800.437 476.617 799.39 485.228 795.213 492.446C789.255 502.847 779.451 508.306 768.237 511.33L767.673 678.891Z"/><path fill="#9D82B9" d="M1091.1 679.377C1078.6 679.202 1065.6 678.365 1053.15 679.364C1051.82 680.837 1052.12 682.319 1052.02 684.239L1051.39 684.485L1051.33 511.19C1045.71 509.91 1040.37 508.376 1035.46 505.261C1028.07 500.563 1022.72 493.345 1020.83 484.738C1018.93 476.272 1020.58 467.393 1025.41 460.182C1031.55 451.014 1040.86 445.992 1051.48 443.953C1051.83 424.706 1051.98 405.455 1051.93 386.204L1090.56 386.002C1091.22 452.35 1090.5 518.753 1090.45 585.105L1090.45 643.405C1090.46 655.343 1090.03 667.485 1091.1 679.377Z"/><path fill="#9D82B9" d="M639.538 652.696C623.496 652.402 607.342 646.395 593.912 637.84C571.372 623.714 555.463 601.11 549.769 575.121C544.739 552.136 548.962 529.211 561.652 509.465C569.909 496.617 631.309 426.267 642.573 418.112C648.42 413.879 655.49 412.372 662.401 410.85C668.845 410.371 675.153 411.014 681.199 413.405C689.972 416.886 696.968 423.765 700.598 432.479C703.665 439.937 703.741 448.289 700.811 455.801C695.125 470.292 659.626 506.754 646.909 520.672C639.7 528.562 630.701 536.921 626.727 547.022C623.965 554.043 623.919 562.143 627.129 569.028C632.817 581.228 646.487 588.344 658.523 592.874C659.076 590.486 659.636 587.931 660.511 585.639C661.487 583.084 663.754 581.811 666.101 580.709L667.46 581.321C668.117 583.337 667.897 585.001 667.453 587.011C665.702 594.935 662.535 602.796 660.238 610.6C654.875 629.332 649.38 648.027 643.752 666.681C641.442 665.992 639.748 665.554 637.962 663.823C636.61 660.732 638.644 655.876 639.538 652.696ZM663.226 418.005C657.194 419.1 651.452 420.667 646.481 424.417C633.977 433.851 617.952 454.901 606.916 467.362C594.398 481.497 579.888 495.499 569.164 511.011C556.849 528.824 552.172 549.544 556.052 570.942C560.316 594.461 574.703 615.791 594.369 629.243C604.603 636.165 615.999 641.187 628.013 644.067C632.569 644.934 637.113 645.783 641.706 646.444C646.809 630.518 651.768 614.546 656.583 598.531C642.155 594.421 629.763 587.759 622.145 574.203C617.412 565.95 616.191 556.141 618.759 546.979C620.003 542.558 622.238 538.386 624.924 534.678C630.823 526.536 638.517 519.182 645.285 511.741L675.473 477.916C682.174 470.472 690.781 462.391 694.443 452.898C696.86 446.631 696.667 439.864 693.436 433.917C689.626 426.875 683.176 421.634 675.505 419.345C671.632 418.221 667.252 417.747 663.226 418.005Z"/><path fill="#9D82B9" d="M1196.23 545.117C1181.85 531.397 1168.77 515.327 1155.38 500.599C1144.65 488.795 1132.23 477.058 1122.84 464.239C1120.28 460.752 1118.6 457.378 1117.54 453.171C1115.29 444.45 1116.68 435.189 1121.4 427.518C1127.22 417.905 1135.6 413.333 1146.24 410.83C1158.19 409.779 1169.18 411.909 1178.94 419.342C1189.19 427.146 1251.42 497.071 1258.64 509.049C1264.99 519.578 1268.77 530.375 1270.34 542.592C1273.62 567.976 1265.68 593.553 1250.03 613.607C1230.98 638.021 1207.09 648.07 1176.99 651.772C1177.35 655.026 1178.15 658.282 1178.81 661.491C1179 662.91 1179 664.348 1179.03 665.778L1177.28 667.362C1176.58 667.442 1175.44 667.799 1174.89 667.35C1173.31 666.058 1172.65 664.211 1172.09 662.319C1170.94 658.491 1170.66 654.43 1169.76 650.541C1167.74 641.74 1165.16 632.921 1162.98 624.127C1159.49 610.012 1154.18 594.574 1152.65 580.149L1154.56 578.166L1154.02 577.98L1152.76 579.176L1154.25 578.022C1154.4 578.075 1154.56 578.107 1154.7 578.18C1160.02 580.999 1160.63 586.892 1161.74 592.158C1170.32 589.887 1177.43 586.822 1183.86 580.473C1193.91 570.538 1196.09 558.646 1196.23 545.117ZM1146.94 417.033C1138.56 419.371 1131.73 423.27 1127.32 431.047C1123.52 437.736 1122.88 445.384 1125.01 452.726C1125.81 455.529 1127.1 458.169 1128.81 460.523C1137.42 472.351 1148.82 483.238 1158.69 494.067C1173.44 510.254 1187.83 526.981 1203.07 542.704C1203.35 558.68 1200.61 572.773 1189.08 584.768C1181.95 592.191 1173.26 596.355 1163.44 598.906C1167.35 614.137 1171.16 629.405 1175.26 644.584C1183.62 644.365 1191.07 643.43 1199.11 640.97C1222.8 633.42 1241.97 618.003 1253.45 595.765C1264.26 574.821 1267.61 549.504 1260.17 526.864C1257.78 519.583 1252.99 512.21 1248.4 506.11C1236.4 490.142 1221.32 475.453 1207.88 460.618C1197.75 449.448 1188.07 437.004 1177.28 426.575C1174.71 424.092 1171.73 422.195 1168.53 420.628C1161.46 417.167 1154.73 416.317 1146.94 417.033Z"/><path fill="#FEFEFE" d="M1203.07 542.704C1187.83 526.981 1173.44 510.254 1158.69 494.067C1148.82 483.238 1137.42 472.351 1128.81 460.523C1127.1 458.169 1125.81 455.529 1125.01 452.726C1122.88 445.384 1123.52 437.736 1127.32 431.047C1131.73 423.27 1138.56 419.371 1146.94 417.033C1154.73 416.317 1161.46 417.167 1168.53 420.628C1171.73 422.195 1174.71 424.092 1177.28 426.575C1188.07 437.004 1197.75 449.448 1207.88 460.618C1221.32 475.453 1236.4 490.142 1248.4 506.11C1252.99 512.21 1257.78 519.583 1260.17 526.864C1267.61 549.504 1264.26 574.821 1253.45 595.765C1241.97 618.003 1222.8 633.42 1199.11 640.97C1191.07 643.43 1183.62 644.365 1175.26 644.584C1171.16 629.405 1167.35 614.137 1163.44 598.906C1173.26 596.355 1181.95 592.191 1189.08 584.768C1200.61 572.773 1203.35 558.68 1203.07 542.704Z"/><path fill="#FEFEFE" d="M628.013 644.067C615.999 641.187 604.603 636.165 594.369 629.243C574.703 615.791 560.316 594.461 556.052 570.942C552.172 549.544 556.849 528.824 569.164 511.011C579.888 495.499 594.398 481.497 606.916 467.362C617.952 454.901 633.977 433.851 646.481 424.417C651.452 420.667 657.194 419.1 663.226 418.005C667.252 417.747 671.632 418.221 675.505 419.345C683.176 421.634 689.626 426.875 693.436 433.917C696.667 439.864 696.86 446.631 694.443 452.898C690.781 462.391 682.174 470.472 675.473 477.916L645.285 511.741C638.517 519.182 630.823 526.536 624.924 534.678C622.238 538.386 620.003 542.558 618.759 546.979C616.191 556.141 617.412 565.95 622.145 574.203C629.763 587.759 642.155 594.421 656.583 598.531C651.768 614.546 646.809 630.518 641.706 646.444C637.113 645.783 632.569 644.934 628.013 644.067Z"/><path fill="#FEFEFE" d="M186.975 450.815L204.257 450.746L204.241 469.305L98.3668 469.428C93.4011 465.213 89.3583 457.151 85.7659 451.635C105.265 451.814 124.793 451.566 144.295 451.498C158.471 451.448 172.837 451.825 186.975 450.815Z"/><path fill="#FEFEFE" d="M290.437 469.03L290.502 450.569L424.155 450.637L424.124 469.088L290.437 469.03Z"/><path fill="#FEFEFE" d="M1396.86 469.253L1396.87 450.694L1531.04 450.779L1531.08 469.258L1396.86 469.253Z"/><path fill="#FEFEFE" d="M1616.02 451.418L1732.77 450.776C1730.71 456.616 1724.26 463.357 1720.49 468.435L1653.29 468.592C1640.96 468.632 1628.18 468.029 1615.9 469.072L1616.02 451.418Z"/><path fill="#FEFEFE" d="M296.009 606.362L491.319 606.278L491.352 657.81L325.845 657.932L271.478 657.929C262.68 657.918 253.554 658.404 244.787 657.803C242.794 657.798 240.9 657.734 238.928 657.42C236.266 656.996 205.584 612.491 201.713 607.157C231.47 606.717 267.179 609.079 296.009 606.362Z"/><path fill="#FEFEFE" d="M1327.86 606.782L1507.76 606.98C1544.11 608.356 1580.87 607.164 1617.26 607.109C1604.72 623.912 1592.27 640.786 1579.92 657.73L1327.73 657.676L1327.86 606.782Z"/><path fill="#7FAA38" d="M722.861 831.98C728.775 814.531 733.494 796.526 738.706 778.848L767.438 681.416C769.228 694.565 774.719 707.762 778.955 720.33L795.472 769.788C822.838 851.168 850.986 932.283 879.912 1013.12C867.98 1013.17 812.028 1011.22 804.572 1013.33C802.8 1007.45 799.244 1001.27 796.696 995.626L779.001 956.229C765.303 924.534 751.419 892.919 737.352 861.386C734.504 854.996 727.995 837.601 724.558 833.14C724.265 832.76 723.291 832.274 722.861 831.98Z"/><path fill="#7FAA38" d="M1051.39 684.485L1052.02 684.239C1060.53 709.768 1067.31 735.938 1074.77 761.791C1081.67 785.739 1089.38 809.711 1095.43 833.868C1067.09 892.638 1045.15 954.551 1016.46 1013.16C990.938 1012.51 965.29 1013.09 939.75 1013.1C960.985 953.111 981.752 892.959 1002.05 832.649C1019.09 783.634 1037.2 734.404 1051.39 684.485Z"/><path fill="#FEFEFE" d="M272.2 702.161L491.133 702.218C491.149 719.116 491.361 736.044 490.822 752.934L319.967 752.748C316.374 752.189 312.513 752.318 308.87 752.205C296.271 735.866 284.72 718.624 272.2 702.161Z"/><path fill="#FEFEFE" d="M1327.73 702.1L1546.42 702.347C1535.22 718.57 1522.85 736.145 1509.95 751.02L1385.15 751.121C1368.67 751.12 1343.4 749.427 1327.76 751.515L1327.73 702.1Z"/><path fill="#FEFEFE" d="M419.722 795.705L491.088 795.647C491.193 812.298 491.178 828.95 491.04 845.601C479.276 843.988 465.816 845.175 453.891 845.174L376.614 845.19C364.43 829.774 351.66 813.062 341.549 796.225C367.382 796.269 393.985 797.483 419.722 795.705Z"/><path fill="#FEFEFE" d="M1327.69 796.493L1476.48 796.405C1472.52 802.225 1445.01 844.206 1440.83 844.998C1438.37 845.462 1435.88 845.417 1433.39 845.435L1327.68 845.482L1327.69 796.493Z"/><path fill="#FEFEFE" d="M722.861 831.98C723.291 832.274 724.265 832.76 724.558 833.14C727.995 837.601 734.504 854.996 737.352 861.386C751.419 892.919 765.303 924.534 779.001 956.229L796.696 995.626C799.244 1001.27 802.8 1007.45 804.572 1013.33L809.306 1024L585.879 1024C582.199 1020.64 578.615 1017.26 574.439 1014.51C585.94 999.247 600.28 985.171 613.206 971.049L685.824 891.259C694.262 881.807 707.918 869.492 714.075 859.155C718.629 851.509 720.356 840.543 722.861 831.98Z"/><path fill="#FEFEFE" d="M1016.46 1013.16C1045.15 954.551 1067.09 892.638 1095.43 833.868C1098 842.069 1100.67 850.216 1102.29 858.672L1196.71 960.322C1207.03 971.259 1217.42 982.13 1227.88 992.931C1233.64 998.916 1240.03 1004.87 1245.19 1011.37C1240.66 1016.06 1235 1019.39 1230.47 1024L1011.88 1024L1016.46 1013.16Z"/><path fill="#FEFEFE" d="M408.375 888.791L491.057 888.773C488.868 902.527 490.46 923.19 490.454 937.675L443.388 937.73C431.03 922.162 419.83 905.059 408.375 888.791Z"/><path fill="#FEFEFE" d="M1327.74 938.58L1327.74 889.416C1354.92 891.54 1382.88 889.037 1410.18 889.519C1398.92 905.875 1387.43 923.244 1374.83 938.564L1327.74 938.58Z"/><path fill="#7FAA38" d="M1293.98 1004.29C1285.29 1010.86 1276.67 1017.58 1267.87 1024L1230.47 1024C1235 1019.39 1240.66 1016.06 1245.19 1011.37L1293.9 972.511L1293.98 1004.29Z"/><path fill="#7FAA38" d="M525.199 1005.58C525.641 995.011 525.864 984.435 525.871 973.857C536.509 982.085 546.859 990.679 556.902 999.623C562.599 1004.59 568.222 1010.21 574.439 1014.51C578.615 1017.26 582.199 1020.64 585.879 1024L548.356 1024C541.326 1015.79 534.074 1007.75 526.918 999.65C525.529 1001.15 525.554 1003.57 525.199 1005.58Z"/><path fill="#FEFEFE" d="M476.04 982.876C481.205 983.081 486.236 983.118 491.403 982.817L491.43 1003.68C486.121 996.881 480.989 989.943 476.04 982.876Z"/><path fill="#FEFEFE" d="M1328.39 983.095L1341.81 983.115C1337.54 989.006 1333.37 995.01 1328.73 1000.62C1328.71 994.879 1329.08 988.775 1328.39 983.095Z"/><path fill="#FEFEFE" d="M525.199 1005.58C525.554 1003.57 525.529 1001.15 526.918 999.65C534.074 1007.75 541.326 1015.79 548.356 1024L525.319 1024C525.328 1017.86 525.288 1011.72 525.199 1005.58Z"/><path fill="#FEFEFE" d="M1267.87 1024C1276.67 1017.58 1285.29 1010.86 1293.98 1004.29L1293.99 1024L1267.87 1024Z"/><path fill="#030203" d="M804.572 1013.33C812.028 1011.22 867.98 1013.17 879.912 1013.12L883.931 1024L809.306 1024L804.572 1013.33Z"/><path fill="#030203" d="M939.75 1013.1C965.29 1013.09 990.938 1012.51 1016.46 1013.16L1011.88 1024L935.417 1024L939.75 1013.1Z"/></svg>